<?xml version="1.0" standalone="no"?>
<!DOCTYPE svg PUBLIC "-//W3C//DTD SVG 20010904//EN"
 "http://www.w3.org/TR/2001/REC-SVG-20010904/DTD/svg10.dtd">
<svg version="1.0" xmlns="http://www.w3.org/2000/svg"
 width="633.000000pt" height="633.000000pt" viewBox="0 0 633.000000 633.000000"
 preserveAspectRatio="xMidYMid meet">

<g transform="translate(0.000000,633.000000) scale(0.100000,-0.100000)"
fill="#000000" stroke="none">
<path d="M1042 5835 l-27 -23 1 -144 c0 -79 3 -162 7 -186 l7 -43 -68 58
c-198 171 -288 204 -286 104 1 -21 41 -156 90 -300 l88 -261 -48 -47 c-86 -86
-146 -188 -207 -353 -28 -74 -41 -93 -98 -150 -74 -73 -191 -154 -326 -227
-109 -58 -118 -80 -60 -135 25 -23 40 -49 50 -88 9 -34 24 -64 40 -77 34 -30
116 -53 188 -53 l59 0 -7 -29 c-5 -24 0 -33 29 -59 81 -71 203 -66 374 14 105
49 144 62 218 74 82 13 192 -2 264 -37 62 -30 139 -98 172 -151 l21 -34 -32
-25 c-28 -22 -31 -29 -30 -81 1 -62 18 -123 37 -130 7 -2 12 3 12 10 0 18 58
74 67 65 3 -4 10 -62 14 -129 6 -109 12 -138 52 -255 96 -281 190 -443 301
-517 63 -42 80 -69 100 -158 25 -111 28 -243 11 -394 -27 -235 -124 -729 -153
-778 -10 -17 -42 -42 -77 -60 -84 -43 -223 -143 -230 -165 -7 -24 11 -63 38
-81 30 -20 291 -27 367 -10 72 16 141 52 173 89 31 37 51 94 44 128 -15 81 31
229 88 282 14 13 25 32 25 43 0 19 135 440 148 462 15 26 55 -173 72 -354 15
-160 16 -576 2 -611 -7 -18 -36 -40 -85 -67 -110 -61 -142 -105 -135 -188 3
-34 8 -41 43 -59 34 -16 59 -19 165 -18 153 2 375 34 398 57 15 15 12 20 -35
61 -59 52 -107 139 -123 225 -7 38 -7 100 1 205 6 82 8 211 5 285 -8 159 11
272 63 383 37 80 55 152 75 312 13 103 21 132 57 204 73 148 222 282 426 384
88 45 309 127 340 127 8 0 49 35 91 79 43 43 89 87 104 97 26 18 28 24 32 110
2 50 12 113 21 140 19 56 14 151 -10 188 -17 25 -55 204 -55 256 0 51 18 107
37 114 23 9 84 -35 183 -133 47 -46 95 -90 107 -98 32 -21 169 -28 260 -14
139 22 203 63 284 180 48 69 64 80 91 59 16 -12 17 -26 7 -168 -15 -218 -14
-230 6 -280 25 -60 28 -291 5 -331 -8 -15 -24 -42 -35 -60 -30 -51 -28 -206 3
-314 17 -59 24 -106 24 -180 0 -107 -10 -161 -47 -240 -19 -39 -24 -67 -24
-125 0 -42 -6 -93 -14 -116 -18 -50 -75 -165 -88 -178 -14 -16 -11 -32 15 -71
70 -102 52 -297 -45 -501 -29 -61 -29 -62 -19 -164 9 -99 27 -150 51 -150 6 0
27 -7 46 -16 44 -22 47 -19 119 121 68 133 265 491 306 557 42 67 33 93 -86
255 -30 41 -99 343 -82 360 2 3 44 -29 93 -69 107 -91 188 -150 229 -171 51
-26 138 -112 167 -164 79 -146 84 -677 7 -850 -17 -39 -26 -46 -107 -83 -48
-23 -98 -51 -112 -63 -32 -30 -51 -78 -51 -131 0 -36 4 -48 22 -57 51 -27 353
18 477 71 45 20 111 78 111 98 0 4 18 107 39 227 21 121 44 261 51 310 17 129
46 246 85 352 19 51 35 105 35 122 0 39 -46 99 -181 237 -144 147 -164 188
-164 334 1 61 6 117 13 134 l13 30 32 -40 c54 -66 90 -95 157 -128 58 -28 74
-31 155 -31 50 1 102 6 118 13 l27 12 -41 37 c-83 75 -119 192 -119 388 0 390
-110 771 -290 1014 -73 99 -209 225 -296 277 -95 56 -274 137 -370 167 -168
53 -235 62 -454 62 -198 0 -211 -2 -378 -38 -395 -84 -763 -138 -957 -141
-117 -1 -133 1 -165 21 -58 35 -238 80 -440 108 -123 18 -213 46 -268 83 -68
47 -132 109 -132 129 0 39 -39 80 -111 118 l-46 24 5 -26 c4 -22 3 -24 -14
-14 -11 5 -49 36 -85 68 -37 32 -110 95 -163 141 -112 98 -126 116 -160 206
-75 200 -185 347 -388 521 -57 49 -139 124 -184 165 -93 89 -114 98 -152 65z"/>
</g>
</svg>
